<mxfile host="app.diagrams.net" agent="Mozilla/5.0 (Windows NT 10.0; Win64; x64) AppleWebKit/537.36 (KHTML, like Gecko) Chrome/128.0.0.0 Safari/537.36" modified="2024-09-24T15:34:20.873Z" version="24.3.1" etag="dHAc_jFUsYJ8G4P7niKu" type="device">
  <diagram id="H8yr4WJ-Fm4cz1cDQXsg" name="Page-1">
    <mxGraphModel dx="1433" dy="353" grid="1" gridSize="10" guides="1" tooltips="1" connect="1" arrows="1" fold="1" page="1" pageScale="1" pageWidth="850" pageHeight="1100" math="0" shadow="0">
      <root>
        <mxCell id="0" />
        <mxCell id="1" parent="0" />
        <mxCell id="BBJ4DhS1-joxppQePrz3-1" style="edgeStyle=orthogonalEdgeStyle;rounded=0;orthogonalLoop=1;jettySize=auto;html=1;exitX=0.25;exitY=1;exitDx=0;exitDy=0;" parent="1" edge="1">
          <mxGeometry relative="1" as="geometry">
            <mxPoint x="385" y="577.25" as="targetPoint" />
            <mxPoint x="385" y="557.2499999999998" as="sourcePoint" />
          </mxGeometry>
        </mxCell>
        <mxCell id="BBJ4DhS1-joxppQePrz3-2" value="&lt;font style=&quot;font-size: 10px;&quot;&gt;Raspberry Pi Pico&lt;/font&gt;" style="rounded=0;whiteSpace=wrap;html=1;" parent="1" vertex="1">
          <mxGeometry x="260" y="250" width="190" height="310" as="geometry" />
        </mxCell>
        <mxCell id="BBJ4DhS1-joxppQePrz3-3" value="GND&lt;span style=&quot;color: rgba(0, 0, 0, 0); font-family: monospace; font-size: 0px; text-align: start; text-wrap: nowrap;&quot;&gt;%3CmxGraphModel%3E%3Croot%3E%3CmxCell%20id%3D%220%22%2F%3E%3CmxCell%20id%3D%221%22%20parent%3D%220%22%2F%3E%3CmxCell%20id%3D%222%22%20value%3D%22%26lt%3Bfont%20style%3D%26quot%3Bfont-size%3A%2010px%3B%26quot%3B%26gt%3B3.3V%26lt%3B%2Ffont%26gt%3B%22%20style%3D%22text%3Bhtml%3D1%3Balign%3Dcenter%3BverticalAlign%3Dmiddle%3BwhiteSpace%3Dwrap%3Brounded%3D0%3BfontSize%3D10%3B%22%20vertex%3D%221%22%20parent%3D%221%22%3E%3CmxGeometry%20x%3D%22199%22%20y%3D%22263%22%20width%3D%2253%22%20height%3D%2227%22%20as%3D%22geometry%22%2F%3E%3C%2FmxCell%3E%3C%2Froot%3E%3C%2FmxGraphModel%3E&lt;/span&gt;" style="text;html=1;align=center;verticalAlign=middle;whiteSpace=wrap;rounded=0;fontSize=8;" parent="1" vertex="1">
          <mxGeometry x="370" y="539.25" width="30" height="20" as="geometry" />
        </mxCell>
        <mxCell id="BBJ4DhS1-joxppQePrz3-4" value="VIN" style="text;html=1;align=center;verticalAlign=middle;whiteSpace=wrap;rounded=0;fontSize=8;" parent="1" vertex="1">
          <mxGeometry x="410" y="539.25" width="30" height="20" as="geometry" />
        </mxCell>
        <mxCell id="BBJ4DhS1-joxppQePrz3-5" value="AGND&lt;span style=&quot;color: rgba(0, 0, 0, 0); font-family: monospace; font-size: 0px; text-align: start; text-wrap: nowrap;&quot;&gt;%3CmxGraphModel%3E%3Croot%3E%3CmxCell%20id%3D%220%22%2F%3E%3CmxCell%20id%3D%221%22%20parent%3D%220%22%2F%3E%3CmxCell%20id%3D%222%22%20value%3D%22%26lt%3Bfont%20style%3D%26quot%3Bfont-size%3A%2010px%3B%26quot%3B%26gt%3B3.3V%26lt%3B%2Ffont%26gt%3B%22%20style%3D%22text%3Bhtml%3D1%3Balign%3Dcenter%3BverticalAlign%3Dmiddle%3BwhiteSpace%3Dwrap%3Brounded%3D0%3BfontSize%3D10%3B%22%20vertex%3D%221%22%20parent%3D%221%22%3E%3CmxGeometry%20x%3D%22199%22%20y%3D%22263%22%20width%3D%2253%22%20height%3D%2227%22%20as%3D%22geometry%22%2F%3E%3C%2FmxCell%3E%3C%2Froot%3E%3C%2FmxGraphModel%3E&lt;/span&gt;" style="text;html=1;align=center;verticalAlign=middle;whiteSpace=wrap;rounded=0;fontSize=8;" parent="1" vertex="1">
          <mxGeometry x="370" y="573.25" width="30" height="20" as="geometry" />
        </mxCell>
        <mxCell id="BBJ4DhS1-joxppQePrz3-6" style="edgeStyle=orthogonalEdgeStyle;rounded=0;orthogonalLoop=1;jettySize=auto;html=1;exitX=0.5;exitY=0;exitDx=0;exitDy=0;entryX=0.5;entryY=1;entryDx=0;entryDy=0;" parent="1" source="BBJ4DhS1-joxppQePrz3-7" target="BBJ4DhS1-joxppQePrz3-4" edge="1">
          <mxGeometry relative="1" as="geometry" />
        </mxCell>
        <mxCell id="BBJ4DhS1-joxppQePrz3-7" value="5V" style="text;html=1;align=center;verticalAlign=middle;whiteSpace=wrap;rounded=0;fontSize=8;" parent="1" vertex="1">
          <mxGeometry x="410" y="573.25" width="30" height="20" as="geometry" />
        </mxCell>
        <mxCell id="BBJ4DhS1-joxppQePrz3-8" value="&lt;font style=&quot;font-size: 12px;&quot;&gt;Robotic&lt;/font&gt;&lt;div&gt;&lt;font style=&quot;font-size: 12px;&quot;&gt;&amp;nbsp;Arm&lt;/font&gt;&lt;/div&gt;" style="rounded=0;whiteSpace=wrap;html=1;align=left;" parent="1" vertex="1">
          <mxGeometry x="-140" y="289" width="290" height="206" as="geometry" />
        </mxCell>
        <mxCell id="BBJ4DhS1-joxppQePrz3-9" value="Joystick 2" style="rounded=0;whiteSpace=wrap;html=1;" parent="1" vertex="1">
          <mxGeometry x="484" y="377" width="60" height="36" as="geometry" />
        </mxCell>
        <mxCell id="BBJ4DhS1-joxppQePrz3-10" style="edgeStyle=orthogonalEdgeStyle;rounded=0;orthogonalLoop=1;jettySize=auto;html=1;exitX=0.5;exitY=0;exitDx=0;exitDy=0;entryX=0.5;entryY=1;entryDx=0;entryDy=0;" parent="1" target="BBJ4DhS1-joxppQePrz3-9" edge="1">
          <mxGeometry relative="1" as="geometry">
            <mxPoint x="513.9999999999998" y="431" as="sourcePoint" />
          </mxGeometry>
        </mxCell>
        <mxCell id="BBJ4DhS1-joxppQePrz3-11" value="&lt;font style=&quot;font-size: 8px;&quot;&gt;3.3V&lt;/font&gt;" style="text;html=1;align=center;verticalAlign=middle;whiteSpace=wrap;rounded=0;" parent="1" vertex="1">
          <mxGeometry x="495.5" y="425" width="35" height="20" as="geometry" />
        </mxCell>
        <mxCell id="BBJ4DhS1-joxppQePrz3-12" value="&lt;font style=&quot;font-size: 8px;&quot;&gt;ADC&lt;/font&gt;" style="text;html=1;align=center;verticalAlign=middle;whiteSpace=wrap;rounded=0;" parent="1" vertex="1">
          <mxGeometry x="454.5" y="365.5" width="25.5" height="19" as="geometry" />
        </mxCell>
        <mxCell id="BBJ4DhS1-joxppQePrz3-13" value="Joystick 1" style="rounded=0;whiteSpace=wrap;html=1;" parent="1" vertex="1">
          <mxGeometry x="483.52" y="280" width="60" height="36" as="geometry" />
        </mxCell>
        <mxCell id="BBJ4DhS1-joxppQePrz3-14" value="&lt;font style=&quot;font-size: 8px;&quot;&gt;ADC&amp;nbsp;&lt;/font&gt;" style="text;html=1;align=center;verticalAlign=middle;whiteSpace=wrap;rounded=0;" parent="1" vertex="1">
          <mxGeometry x="456.02" y="276.5" width="25.5" height="19" as="geometry" />
        </mxCell>
        <mxCell id="BBJ4DhS1-joxppQePrz3-15" style="edgeStyle=orthogonalEdgeStyle;rounded=0;orthogonalLoop=1;jettySize=auto;html=1;exitX=0;exitY=0.5;exitDx=0;exitDy=0;entryX=1.006;entryY=0.367;entryDx=0;entryDy=0;entryPerimeter=0;" parent="1" source="BBJ4DhS1-joxppQePrz3-13" edge="1">
          <mxGeometry relative="1" as="geometry">
            <mxPoint x="450" y="298.04999999999995" as="targetPoint" />
          </mxGeometry>
        </mxCell>
        <mxCell id="BBJ4DhS1-joxppQePrz3-16" value="&lt;font style=&quot;font-size: 8px;&quot;&gt;3.3V&lt;/font&gt;" style="text;html=1;align=center;verticalAlign=middle;whiteSpace=wrap;rounded=0;" parent="1" vertex="1">
          <mxGeometry x="496.5" y="244" width="35" height="20" as="geometry" />
        </mxCell>
        <mxCell id="BBJ4DhS1-joxppQePrz3-17" style="edgeStyle=orthogonalEdgeStyle;rounded=0;orthogonalLoop=1;jettySize=auto;html=1;exitX=0.5;exitY=0;exitDx=0;exitDy=0;endSize=5;" parent="1" edge="1">
          <mxGeometry relative="1" as="geometry">
            <mxPoint x="513.9299999999998" y="260" as="sourcePoint" />
            <mxPoint x="514" y="280" as="targetPoint" />
          </mxGeometry>
        </mxCell>
        <mxCell id="BBJ4DhS1-joxppQePrz3-18" value="" style="endArrow=classic;html=1;rounded=0;entryX=1.002;entryY=0.322;entryDx=0;entryDy=0;entryPerimeter=0;" parent="1" edge="1">
          <mxGeometry width="50" height="50" relative="1" as="geometry">
            <mxPoint x="483.52" y="386.5" as="sourcePoint" />
            <mxPoint x="450.3799999999999" y="386.81999999999994" as="targetPoint" />
          </mxGeometry>
        </mxCell>
        <mxCell id="BBJ4DhS1-joxppQePrz3-19" value="&lt;font style=&quot;font-size: 8px;&quot;&gt;ADC&lt;/font&gt;" style="text;html=1;align=center;verticalAlign=middle;whiteSpace=wrap;rounded=0;" parent="1" vertex="1">
          <mxGeometry x="454.5" y="387.5" width="25.5" height="19" as="geometry" />
        </mxCell>
        <mxCell id="BBJ4DhS1-joxppQePrz3-20" value="" style="endArrow=classic;html=1;rounded=0;entryX=1.002;entryY=0.389;entryDx=0;entryDy=0;entryPerimeter=0;" parent="1" edge="1">
          <mxGeometry width="50" height="50" relative="1" as="geometry">
            <mxPoint x="483.52" y="407.5" as="sourcePoint" />
            <mxPoint x="450.3799999999999" y="407.59000000000003" as="targetPoint" />
          </mxGeometry>
        </mxCell>
        <mxCell id="BBJ4DhS1-joxppQePrz3-21" value="Servo Motors&amp;nbsp;&lt;div&gt;(All Joints)&lt;/div&gt;" style="rounded=0;whiteSpace=wrap;html=1;" parent="1" vertex="1">
          <mxGeometry x="30" y="289" width="120" height="72" as="geometry" />
        </mxCell>
        <mxCell id="BBJ4DhS1-joxppQePrz3-22" value="" style="rounded=0;whiteSpace=wrap;html=1;fillColor=none;dashed=1;" parent="1" vertex="1">
          <mxGeometry x="10" y="272" width="160" height="106" as="geometry" />
        </mxCell>
        <mxCell id="BBJ4DhS1-joxppQePrz3-24" style="edgeStyle=orthogonalEdgeStyle;rounded=0;orthogonalLoop=1;jettySize=auto;html=1;exitX=0;exitY=0.25;exitDx=0;exitDy=0;entryX=1.003;entryY=0.537;entryDx=0;entryDy=0;entryPerimeter=0;" parent="1" source="BBJ4DhS1-joxppQePrz3-2" target="BBJ4DhS1-joxppQePrz3-21" edge="1">
          <mxGeometry relative="1" as="geometry" />
        </mxCell>
        <mxCell id="BBJ4DhS1-joxppQePrz3-25" value="PWM" style="text;html=1;align=center;verticalAlign=middle;whiteSpace=wrap;rounded=0;fontSize=10;" parent="1" vertex="1">
          <mxGeometry x="175" y="302" width="60" height="30" as="geometry" />
        </mxCell>
        <mxCell id="BBJ4DhS1-joxppQePrz3-26" value="VIN" style="text;html=1;align=center;verticalAlign=middle;whiteSpace=wrap;rounded=0;fontSize=10;" parent="1" vertex="1">
          <mxGeometry x="30" y="290" width="60" height="12" as="geometry" />
        </mxCell>
        <mxCell id="BBJ4DhS1-joxppQePrz3-29" style="edgeStyle=orthogonalEdgeStyle;rounded=0;orthogonalLoop=1;jettySize=auto;html=1;exitX=0.5;exitY=1;exitDx=0;exitDy=0;entryX=0.5;entryY=0;entryDx=0;entryDy=0;" parent="1" source="BBJ4DhS1-joxppQePrz3-28" target="BBJ4DhS1-joxppQePrz3-26" edge="1">
          <mxGeometry relative="1" as="geometry" />
        </mxCell>
        <mxCell id="BBJ4DhS1-joxppQePrz3-28" value="7.5V" style="text;html=1;align=center;verticalAlign=middle;whiteSpace=wrap;rounded=0;fontSize=10;" parent="1" vertex="1">
          <mxGeometry x="30" y="252" width="60" height="12" as="geometry" />
        </mxCell>
        <mxCell id="BBJ4DhS1-joxppQePrz3-30" value="Times 5" style="text;html=1;align=center;verticalAlign=middle;whiteSpace=wrap;rounded=0;fontSize=14;" parent="1" vertex="1">
          <mxGeometry x="90" y="239" width="60" height="30" as="geometry" />
        </mxCell>
        <mxCell id="BBJ4DhS1-joxppQePrz3-32" value="Manual/Automatic switch" style="rounded=0;whiteSpace=wrap;html=1;" parent="1" vertex="1">
          <mxGeometry x="569.77" y="420" width="104.5" height="49.5" as="geometry" />
        </mxCell>
        <mxCell id="BBJ4DhS1-joxppQePrz3-33" style="edgeStyle=orthogonalEdgeStyle;rounded=0;orthogonalLoop=1;jettySize=auto;html=1;exitX=0;exitY=0.5;exitDx=0;exitDy=0;entryX=1.017;entryY=0.77;entryDx=0;entryDy=0;entryPerimeter=0;" parent="1" source="BBJ4DhS1-joxppQePrz3-32" edge="1">
          <mxGeometry relative="1" as="geometry">
            <mxPoint x="450" y="444.69999999999993" as="targetPoint" />
          </mxGeometry>
        </mxCell>
        <mxCell id="BBJ4DhS1-joxppQePrz3-34" value="3.3V" style="text;html=1;align=center;verticalAlign=middle;whiteSpace=wrap;rounded=0;fontSize=10;" parent="1" vertex="1">
          <mxGeometry x="712.77" y="429.75" width="35" height="30" as="geometry" />
        </mxCell>
        <mxCell id="BBJ4DhS1-joxppQePrz3-35" value="" style="endArrow=classic;html=1;rounded=0;" parent="1" edge="1">
          <mxGeometry width="50" height="50" relative="1" as="geometry">
            <mxPoint x="716.77" y="446" as="sourcePoint" />
            <mxPoint x="674.27" y="444.72" as="targetPoint" />
          </mxGeometry>
        </mxCell>
        <mxCell id="BBJ4DhS1-joxppQePrz3-36" style="edgeStyle=orthogonalEdgeStyle;rounded=0;orthogonalLoop=1;jettySize=auto;html=1;exitX=0.5;exitY=1;exitDx=0;exitDy=0;" parent="1" source="BBJ4DhS1-joxppQePrz3-37" edge="1">
          <mxGeometry relative="1" as="geometry">
            <mxPoint x="508.62714285714264" y="526" as="targetPoint" />
          </mxGeometry>
        </mxCell>
        <mxCell id="BBJ4DhS1-joxppQePrz3-37" value="Indicator LED" style="rounded=0;whiteSpace=wrap;html=1;" parent="1" vertex="1">
          <mxGeometry x="478.77" y="469.75" width="60" height="34" as="geometry" />
        </mxCell>
        <mxCell id="BBJ4DhS1-joxppQePrz3-38" value="" style="endArrow=classic;html=1;rounded=0;entryX=0.5;entryY=0;entryDx=0;entryDy=0;" parent="1" target="BBJ4DhS1-joxppQePrz3-37" edge="1">
          <mxGeometry width="50" height="50" relative="1" as="geometry">
            <mxPoint x="508.77" y="446" as="sourcePoint" />
            <mxPoint x="578.77" y="396" as="targetPoint" />
          </mxGeometry>
        </mxCell>
        <mxCell id="BBJ4DhS1-joxppQePrz3-39" value="7.5V" style="text;html=1;align=center;verticalAlign=middle;whiteSpace=wrap;rounded=0;" parent="1" vertex="1">
          <mxGeometry x="642.77" y="586.4999999999999" width="29" height="17" as="geometry" />
        </mxCell>
        <mxCell id="BBJ4DhS1-joxppQePrz3-40" value="5V" style="text;html=1;align=center;verticalAlign=middle;whiteSpace=wrap;rounded=0;" parent="1" vertex="1">
          <mxGeometry x="698.27" y="585.9699999999999" width="30" height="17" as="geometry" />
        </mxCell>
        <mxCell id="BBJ4DhS1-joxppQePrz3-42" style="edgeStyle=orthogonalEdgeStyle;rounded=0;orthogonalLoop=1;jettySize=auto;html=1;exitX=0.5;exitY=1;exitDx=0;exitDy=0;" parent="1" edge="1">
          <mxGeometry relative="1" as="geometry">
            <mxPoint x="657.27" y="635.9" as="targetPoint" />
            <mxPoint x="657.27" y="602.97" as="sourcePoint" />
          </mxGeometry>
        </mxCell>
        <mxCell id="BBJ4DhS1-joxppQePrz3-44" value="Switch" style="rounded=0;whiteSpace=wrap;html=1;" parent="1" vertex="1">
          <mxGeometry x="630.77" y="636.97" width="53" height="40" as="geometry" />
        </mxCell>
        <mxCell id="BBJ4DhS1-joxppQePrz3-45" style="edgeStyle=orthogonalEdgeStyle;rounded=0;orthogonalLoop=1;jettySize=auto;html=1;exitX=0.5;exitY=1;exitDx=0;exitDy=0;" parent="1" edge="1">
          <mxGeometry relative="1" as="geometry">
            <mxPoint x="657.15" y="709.9699999999999" as="targetPoint" />
            <mxPoint x="657.15" y="676.9699999999999" as="sourcePoint" />
          </mxGeometry>
        </mxCell>
        <mxCell id="BBJ4DhS1-joxppQePrz3-46" value="Power Supply" style="text;html=1;align=center;verticalAlign=middle;whiteSpace=wrap;rounded=0;fontSize=14;" parent="1" vertex="1">
          <mxGeometry x="658.27" y="480" width="110" height="32" as="geometry" />
        </mxCell>
        <mxCell id="BBJ4DhS1-joxppQePrz3-47" value="Current Limiter" style="rounded=0;whiteSpace=wrap;html=1;" parent="1" vertex="1">
          <mxGeometry x="634.27" y="710.47" width="46" height="41" as="geometry" />
        </mxCell>
        <mxCell id="BBJ4DhS1-joxppQePrz3-48" style="edgeStyle=orthogonalEdgeStyle;rounded=0;orthogonalLoop=1;jettySize=auto;html=1;exitX=0.5;exitY=1;exitDx=0;exitDy=0;" parent="1" edge="1">
          <mxGeometry relative="1" as="geometry">
            <mxPoint x="657.13" y="784.4699999999999" as="targetPoint" />
            <mxPoint x="657.13" y="751.4699999999999" as="sourcePoint" />
          </mxGeometry>
        </mxCell>
        <mxCell id="BBJ4DhS1-joxppQePrz3-49" value="" style="rounded=0;whiteSpace=wrap;html=1;dashed=1;fillColor=none;" parent="1" vertex="1">
          <mxGeometry x="608.27" y="520" width="210" height="285.97" as="geometry" />
        </mxCell>
        <mxCell id="BBJ4DhS1-joxppQePrz3-52" value="3.3V" style="text;html=1;align=center;verticalAlign=middle;whiteSpace=wrap;rounded=0;" parent="1" vertex="1">
          <mxGeometry x="747.77" y="585.9699999999999" width="30" height="17" as="geometry" />
        </mxCell>
        <mxCell id="BBJ4DhS1-joxppQePrz3-55" style="edgeStyle=orthogonalEdgeStyle;rounded=0;orthogonalLoop=1;jettySize=auto;html=1;exitX=0.5;exitY=1;exitDx=0;exitDy=0;entryX=0.5;entryY=0;entryDx=0;entryDy=0;" parent="1" source="BBJ4DhS1-joxppQePrz3-54" target="BBJ4DhS1-joxppQePrz3-52" edge="1">
          <mxGeometry relative="1" as="geometry" />
        </mxCell>
        <mxCell id="BBJ4DhS1-joxppQePrz3-54" value="Pico" style="rounded=0;whiteSpace=wrap;html=1;" parent="1" vertex="1">
          <mxGeometry x="737.27" y="530" width="51" height="40" as="geometry" />
        </mxCell>
        <mxCell id="BBJ4DhS1-joxppQePrz3-57" value="Color Sensor" style="rounded=0;whiteSpace=wrap;html=1;" parent="1" vertex="1">
          <mxGeometry x="70" y="445" width="80" height="50" as="geometry" />
        </mxCell>
        <mxCell id="BBJ4DhS1-joxppQePrz3-58" value="" style="endArrow=classic;html=1;rounded=0;startArrow=classic;startFill=1;" parent="1" edge="1">
          <mxGeometry width="50" height="50" relative="1" as="geometry">
            <mxPoint x="260" y="469.18" as="sourcePoint" />
            <mxPoint x="150" y="469.18" as="targetPoint" />
          </mxGeometry>
        </mxCell>
        <mxCell id="BBJ4DhS1-joxppQePrz3-59" value="I2C" style="text;html=1;align=center;verticalAlign=middle;whiteSpace=wrap;rounded=0;fontSize=10;" parent="1" vertex="1">
          <mxGeometry x="175" y="445" width="60" height="30" as="geometry" />
        </mxCell>
        <mxCell id="ya4cABQ2EOQggIDDSYo2-1" value="Button" style="rounded=0;whiteSpace=wrap;html=1;" vertex="1" parent="1">
          <mxGeometry x="489.52" y="331" width="48" height="30" as="geometry" />
        </mxCell>
        <mxCell id="ya4cABQ2EOQggIDDSYo2-2" style="edgeStyle=orthogonalEdgeStyle;rounded=0;orthogonalLoop=1;jettySize=auto;html=1;exitX=0;exitY=0.5;exitDx=0;exitDy=0;entryX=1;entryY=0.292;entryDx=0;entryDy=0;entryPerimeter=0;" edge="1" parent="1" source="ya4cABQ2EOQggIDDSYo2-1">
          <mxGeometry relative="1" as="geometry">
            <mxPoint x="450" y="346.5" as="targetPoint" />
          </mxGeometry>
        </mxCell>
        <mxCell id="ya4cABQ2EOQggIDDSYo2-3" value="&lt;font style=&quot;font-size: 8px;&quot;&gt;3.3V&lt;/font&gt;" style="text;html=1;align=center;verticalAlign=middle;whiteSpace=wrap;rounded=0;" vertex="1" parent="1">
          <mxGeometry x="450.52" y="327" width="35" height="20" as="geometry" />
        </mxCell>
      </root>
    </mxGraphModel>
  </diagram>
</mxfile>
